<mxfile host="app.diagrams.net" modified="2023-08-23T12:27:41.425Z" agent="Mozilla/5.0 (X11; Linux x86_64; rv:109.0) Gecko/20100101 Firefox/113.0" etag="dU8FnMjaTmahXwdGEiVu" version="21.6.9" type="device">
  <diagram name="Page-1" id="L9Q5bj5fLcDvwvkhY-lI">
    <mxGraphModel dx="1434" dy="649" grid="1" gridSize="10" guides="1" tooltips="1" connect="1" arrows="1" fold="1" page="1" pageScale="1" pageWidth="850" pageHeight="1100" math="0" shadow="0">
      <root>
        <mxCell id="0" />
        <mxCell id="1" parent="0" />
        <mxCell id="Yo78GI136DEajXu1sbwt-17" value="" style="group" vertex="1" connectable="0" parent="1">
          <mxGeometry x="80" y="460" width="80" height="130" as="geometry" />
        </mxCell>
        <mxCell id="Yo78GI136DEajXu1sbwt-18" value="&lt;div align=&quot;center&quot;&gt;&lt;blockquote&gt;&lt;br&gt;&lt;/blockquote&gt;&lt;/div&gt;" style="shape=card;whiteSpace=wrap;html=1;fillColor=#d5e8d4;strokeColor=#82b366;align=center;" vertex="1" parent="Yo78GI136DEajXu1sbwt-17">
          <mxGeometry width="80" height="100" as="geometry" />
        </mxCell>
        <mxCell id="Yo78GI136DEajXu1sbwt-19" value="" style="shape=image;verticalLabelPosition=bottom;labelBackgroundColor=default;verticalAlign=top;aspect=fixed;imageAspect=0;image=data:image/png,iVBORw0KGgoAAAANSUhEUgAAADAAAAAwCAYAAABXAvmHAAAACXBIWXMAAAsTAAALEwEAmpwYAAAE8UlEQVR4nO2ZXWxTZRjHnyeyGzGYoICgxisTE00EL7hA4wWJNwZCgM0ENfZr7dZtZYzxlSEZAjLG1tN1O+1Zs53TuXZtV9hoRzQx8ePCK4M3xsRM1AvOOW3X9nwUFlTQ8ZrTdlhHhzLaxpr+kv9N+/Y5v3/yJD09BahRI8s5j+dxys19RDGsSjHcrGOY2wPVBOXmvA6GI4uh3Nxtih57EaoFiuFShQWyGeYOQrVAMey39xRg2H0rHujyjG+jR/x2etRvDofDj0CZsTPcmw43+2vBCn3l8XjqVjSM9vo306zvd5r1E3pUi6/3nz4zPwIbrrvgXdWFw6oLr6g08uoQ3lQHs+EVJ15RncgoTnhnvg/WF5sxwHDPDzBcG8Ww9SuW13Cx/iMudoK4tAKsnwyN+L9b7qwyDK9nGAyrLrydcSFRtdBI1KF8BpGoTiTKQD4OJDKFtxQKQ0o/vAblwM0FtucK5DLE+tmlZ9JDsEllcDzjRpJZlKYLpIuIKxQSxZ6L3I9E7kMi9eFlpQ+eK0MJn47mJj51jU44nD7fmsL3VAZ2Z9w4X1TcWSDuWF5cPp9PLxK5B2+ke2AXVIKMG7oUGu8UXZNlxLPSxcTPIZG09CBJn8WF9Bk4WlZ5lYbO++z3D4oDLygUnlfs0Kb2g162Q4MW6TzopXPQJvVin9yLF6QevKpJS1rOIpE+zCV9BknqFLSXRT4zBA3KIN5Z3G/FiarswHHVAXsydlj7oPOun4UnpDOwVzqNvtRpzKRPI0mf0grgQvID2FtS+RQFGxUnKvn9/l52gDnmgUdLNT/RB6vTp8CSOomz6ZNIUt0oJbvhqVLNB8WJl+QBlGQHNJFuWAVlgnTDqrkT0Jw8gXLqfbxYkqEqBa/IDvxMssPTUCGkbngmeRy/SHbB5ocepgzADuKBlX8rrhBigbrEMdhR6evWqFGjRo0aNWr8r0h0wU7txqrS1yXdsCpmgjceelDqKGxJHsPPpa7K3U6LenhWbMQvBQO8XJKBicM4NXcE5bnD0FzOHzTfWKBObIRW0YgKb8BwyQanDsDGuUMoz3UiSRzE2XgHNCU6YXWp5idb4DHRBFbRhFcFIxJej+mfTbABSkm8E+rjHbiQ6ECSOIAk3o6ZxH70x21QH7fBugedl2iG9WIjvCUYMSAY8bomLhiQ8Dpc4N+D3VAOYu1wQJNPtCOJ70cSt+XThiTeij/GWnEqZsX+mBVsYjMYRSs0iBZoEM1g5C1gE8xoFxtxSjThT6IJiahJ58UFfS68Dmxlkb9bwgZHY224UCBOYi35WJHEmvNpQiJa8jEjERuRZKVNBdKGQnFc4PVwqKzyd0u0wK5YK964R7ypQNx8H/G8tPCX/A1RDzuhklxrhU2iFceLijcWiBdZkyXyl+PGMjzc/bfEmuBVwYJB0Yy37hFfsiZ3o8PfBB0GRD1sq4jkaCCyhQ1eOsEGp4+PhqZeKnYmboB1vAneFozoFvT4NW/Aa7wOb2ajx2vaa4IOXbwB9sUs8CRUCu9kxMwFIn9wwQjJ5zYbmF75f1eVZCQcXssFo794Q1HiDUWId7FEIJLxzMyU7Nlo2eAC0e05+cVEstFKjExMb4X/Ot6LMy+MTUbJ2N9K5IqMBiKboBoYm4x+PDY5Q7QiiwW4YDQI1YLP98kab2jG7Q3NxL2hqOgNRamq2H+oEv4EAGDM6epTOSsAAAAASUVORK5CYII=;" vertex="1" parent="Yo78GI136DEajXu1sbwt-17">
          <mxGeometry x="20" y="30" width="48" height="48" as="geometry" />
        </mxCell>
        <mxCell id="Yo78GI136DEajXu1sbwt-25" value="" style="group" vertex="1" connectable="0" parent="1">
          <mxGeometry x="90" y="470" width="80" height="130" as="geometry" />
        </mxCell>
        <mxCell id="Yo78GI136DEajXu1sbwt-26" value="&lt;div align=&quot;center&quot;&gt;&lt;blockquote&gt;&lt;br&gt;&lt;/blockquote&gt;&lt;/div&gt;" style="shape=card;whiteSpace=wrap;html=1;fillColor=#d5e8d4;strokeColor=#82b366;align=center;" vertex="1" parent="Yo78GI136DEajXu1sbwt-25">
          <mxGeometry width="80" height="100" as="geometry" />
        </mxCell>
        <mxCell id="Yo78GI136DEajXu1sbwt-27" value="" style="shape=image;verticalLabelPosition=bottom;labelBackgroundColor=default;verticalAlign=top;aspect=fixed;imageAspect=0;image=data:image/png,iVBORw0KGgoAAAANSUhEUgAAADAAAAAwCAYAAABXAvmHAAAACXBIWXMAAAsTAAALEwEAmpwYAAAE8UlEQVR4nO2ZXWxTZRjHnyeyGzGYoICgxisTE00EL7hA4wWJNwZCgM0ENfZr7dZtZYzxlSEZAjLG1tN1O+1Zs53TuXZtV9hoRzQx8ePCK4M3xsRM1AvOOW3X9nwUFlTQ8ZrTdlhHhzLaxpr+kv9N+/Y5v3/yJD09BahRI8s5j+dxys19RDGsSjHcrGOY2wPVBOXmvA6GI4uh3Nxtih57EaoFiuFShQWyGeYOQrVAMey39xRg2H0rHujyjG+jR/x2etRvDofDj0CZsTPcmw43+2vBCn3l8XjqVjSM9vo306zvd5r1E3pUi6/3nz4zPwIbrrvgXdWFw6oLr6g08uoQ3lQHs+EVJ15RncgoTnhnvg/WF5sxwHDPDzBcG8Ww9SuW13Cx/iMudoK4tAKsnwyN+L9b7qwyDK9nGAyrLrydcSFRtdBI1KF8BpGoTiTKQD4OJDKFtxQKQ0o/vAblwM0FtucK5DLE+tmlZ9JDsEllcDzjRpJZlKYLpIuIKxQSxZ6L3I9E7kMi9eFlpQ+eK0MJn47mJj51jU44nD7fmsL3VAZ2Z9w4X1TcWSDuWF5cPp9PLxK5B2+ke2AXVIKMG7oUGu8UXZNlxLPSxcTPIZG09CBJn8WF9Bk4WlZ5lYbO++z3D4oDLygUnlfs0Kb2g162Q4MW6TzopXPQJvVin9yLF6QevKpJS1rOIpE+zCV9BknqFLSXRT4zBA3KIN5Z3G/FiarswHHVAXsydlj7oPOun4UnpDOwVzqNvtRpzKRPI0mf0grgQvID2FtS+RQFGxUnKvn9/l52gDnmgUdLNT/RB6vTp8CSOomz6ZNIUt0oJbvhqVLNB8WJl+QBlGQHNJFuWAVlgnTDqrkT0Jw8gXLqfbxYkqEqBa/IDvxMssPTUCGkbngmeRy/SHbB5ocepgzADuKBlX8rrhBigbrEMdhR6evWqFGjRo0aNWr8r0h0wU7txqrS1yXdsCpmgjceelDqKGxJHsPPpa7K3U6LenhWbMQvBQO8XJKBicM4NXcE5bnD0FzOHzTfWKBObIRW0YgKb8BwyQanDsDGuUMoz3UiSRzE2XgHNCU6YXWp5idb4DHRBFbRhFcFIxJej+mfTbABSkm8E+rjHbiQ6ECSOIAk3o6ZxH70x21QH7fBugedl2iG9WIjvCUYMSAY8bomLhiQ8Dpc4N+D3VAOYu1wQJNPtCOJ70cSt+XThiTeij/GWnEqZsX+mBVsYjMYRSs0iBZoEM1g5C1gE8xoFxtxSjThT6IJiahJ58UFfS68Dmxlkb9bwgZHY224UCBOYi35WJHEmvNpQiJa8jEjERuRZKVNBdKGQnFc4PVwqKzyd0u0wK5YK964R7ypQNx8H/G8tPCX/A1RDzuhklxrhU2iFceLijcWiBdZkyXyl+PGMjzc/bfEmuBVwYJB0Yy37hFfsiZ3o8PfBB0GRD1sq4jkaCCyhQ1eOsEGp4+PhqZeKnYmboB1vAneFozoFvT4NW/Aa7wOb2ajx2vaa4IOXbwB9sUs8CRUCu9kxMwFIn9wwQjJ5zYbmF75f1eVZCQcXssFo794Q1HiDUWId7FEIJLxzMyU7Nlo2eAC0e05+cVEstFKjExMb4X/Ot6LMy+MTUbJ2N9K5IqMBiKboBoYm4x+PDY5Q7QiiwW4YDQI1YLP98kab2jG7Q3NxL2hqOgNRamq2H+oEv4EAGDM6epTOSsAAAAASUVORK5CYII=;" vertex="1" parent="Yo78GI136DEajXu1sbwt-25">
          <mxGeometry x="20" y="30" width="48" height="48" as="geometry" />
        </mxCell>
        <mxCell id="Yo78GI136DEajXu1sbwt-28" value="" style="group" vertex="1" connectable="0" parent="1">
          <mxGeometry x="100" y="480" width="80" height="150" as="geometry" />
        </mxCell>
        <mxCell id="Yo78GI136DEajXu1sbwt-29" value="&lt;div align=&quot;center&quot;&gt;&lt;blockquote&gt;&lt;br&gt;&lt;/blockquote&gt;&lt;/div&gt;" style="shape=card;whiteSpace=wrap;html=1;fillColor=#d5e8d4;strokeColor=#82b366;align=center;" vertex="1" parent="Yo78GI136DEajXu1sbwt-28">
          <mxGeometry width="80" height="100" as="geometry" />
        </mxCell>
        <mxCell id="Yo78GI136DEajXu1sbwt-30" value="" style="shape=image;verticalLabelPosition=bottom;labelBackgroundColor=default;verticalAlign=top;aspect=fixed;imageAspect=0;image=data:image/png,iVBORw0KGgoAAAANSUhEUgAAADAAAAAwCAYAAABXAvmHAAAACXBIWXMAAAsTAAALEwEAmpwYAAAE8UlEQVR4nO2ZXWxTZRjHnyeyGzGYoICgxisTE00EL7hA4wWJNwZCgM0ENfZr7dZtZYzxlSEZAjLG1tN1O+1Zs53TuXZtV9hoRzQx8ePCK4M3xsRM1AvOOW3X9nwUFlTQ8ZrTdlhHhzLaxpr+kv9N+/Y5v3/yJD09BahRI8s5j+dxys19RDGsSjHcrGOY2wPVBOXmvA6GI4uh3Nxtih57EaoFiuFShQWyGeYOQrVAMey39xRg2H0rHujyjG+jR/x2etRvDofDj0CZsTPcmw43+2vBCn3l8XjqVjSM9vo306zvd5r1E3pUi6/3nz4zPwIbrrvgXdWFw6oLr6g08uoQ3lQHs+EVJ15RncgoTnhnvg/WF5sxwHDPDzBcG8Ww9SuW13Cx/iMudoK4tAKsnwyN+L9b7qwyDK9nGAyrLrydcSFRtdBI1KF8BpGoTiTKQD4OJDKFtxQKQ0o/vAblwM0FtucK5DLE+tmlZ9JDsEllcDzjRpJZlKYLpIuIKxQSxZ6L3I9E7kMi9eFlpQ+eK0MJn47mJj51jU44nD7fmsL3VAZ2Z9w4X1TcWSDuWF5cPp9PLxK5B2+ke2AXVIKMG7oUGu8UXZNlxLPSxcTPIZG09CBJn8WF9Bk4WlZ5lYbO++z3D4oDLygUnlfs0Kb2g162Q4MW6TzopXPQJvVin9yLF6QevKpJS1rOIpE+zCV9BknqFLSXRT4zBA3KIN5Z3G/FiarswHHVAXsydlj7oPOun4UnpDOwVzqNvtRpzKRPI0mf0grgQvID2FtS+RQFGxUnKvn9/l52gDnmgUdLNT/RB6vTp8CSOomz6ZNIUt0oJbvhqVLNB8WJl+QBlGQHNJFuWAVlgnTDqrkT0Jw8gXLqfbxYkqEqBa/IDvxMssPTUCGkbngmeRy/SHbB5ocepgzADuKBlX8rrhBigbrEMdhR6evWqFGjRo0aNWr8r0h0wU7txqrS1yXdsCpmgjceelDqKGxJHsPPpa7K3U6LenhWbMQvBQO8XJKBicM4NXcE5bnD0FzOHzTfWKBObIRW0YgKb8BwyQanDsDGuUMoz3UiSRzE2XgHNCU6YXWp5idb4DHRBFbRhFcFIxJej+mfTbABSkm8E+rjHbiQ6ECSOIAk3o6ZxH70x21QH7fBugedl2iG9WIjvCUYMSAY8bomLhiQ8Dpc4N+D3VAOYu1wQJNPtCOJ70cSt+XThiTeij/GWnEqZsX+mBVsYjMYRSs0iBZoEM1g5C1gE8xoFxtxSjThT6IJiahJ58UFfS68Dmxlkb9bwgZHY224UCBOYi35WJHEmvNpQiJa8jEjERuRZKVNBdKGQnFc4PVwqKzyd0u0wK5YK964R7ypQNx8H/G8tPCX/A1RDzuhklxrhU2iFceLijcWiBdZkyXyl+PGMjzc/bfEmuBVwYJB0Yy37hFfsiZ3o8PfBB0GRD1sq4jkaCCyhQ1eOsEGp4+PhqZeKnYmboB1vAneFozoFvT4NW/Aa7wOb2ajx2vaa4IOXbwB9sUs8CRUCu9kxMwFIn9wwQjJ5zYbmF75f1eVZCQcXssFo794Q1HiDUWId7FEIJLxzMyU7Nlo2eAC0e05+cVEstFKjExMb4X/Ot6LMy+MTUbJ2N9K5IqMBiKboBoYm4x+PDY5Q7QiiwW4YDQI1YLP98kab2jG7Q3NxL2hqOgNRamq2H+oEv4EAGDM6epTOSsAAAAASUVORK5CYII=;" vertex="1" parent="Yo78GI136DEajXu1sbwt-28">
          <mxGeometry x="20" y="30" width="48" height="48" as="geometry" />
        </mxCell>
        <mxCell id="Yo78GI136DEajXu1sbwt-34" value="Tasks" style="text;html=1;strokeColor=none;fillColor=none;align=center;verticalAlign=middle;whiteSpace=wrap;rounded=0;" vertex="1" parent="Yo78GI136DEajXu1sbwt-28">
          <mxGeometry y="120" width="60" height="30" as="geometry" />
        </mxCell>
        <mxCell id="Yo78GI136DEajXu1sbwt-31" value="" style="group" vertex="1" connectable="0" parent="1">
          <mxGeometry x="110" y="490" width="80" height="130" as="geometry" />
        </mxCell>
        <mxCell id="Yo78GI136DEajXu1sbwt-32" value="&lt;div align=&quot;center&quot;&gt;&lt;blockquote&gt;&lt;br&gt;&lt;/blockquote&gt;&lt;/div&gt;" style="shape=card;whiteSpace=wrap;html=1;fillColor=#d5e8d4;strokeColor=#82b366;align=center;" vertex="1" parent="Yo78GI136DEajXu1sbwt-31">
          <mxGeometry width="80" height="100" as="geometry" />
        </mxCell>
        <mxCell id="Yo78GI136DEajXu1sbwt-33" value="" style="shape=image;verticalLabelPosition=bottom;labelBackgroundColor=default;verticalAlign=top;aspect=fixed;imageAspect=0;image=data:image/png,iVBORw0KGgoAAAANSUhEUgAAADAAAAAwCAYAAABXAvmHAAAACXBIWXMAAAsTAAALEwEAmpwYAAAE8UlEQVR4nO2ZXWxTZRjHnyeyGzGYoICgxisTE00EL7hA4wWJNwZCgM0ENfZr7dZtZYzxlSEZAjLG1tN1O+1Zs53TuXZtV9hoRzQx8ePCK4M3xsRM1AvOOW3X9nwUFlTQ8ZrTdlhHhzLaxpr+kv9N+/Y5v3/yJD09BahRI8s5j+dxys19RDGsSjHcrGOY2wPVBOXmvA6GI4uh3Nxtih57EaoFiuFShQWyGeYOQrVAMey39xRg2H0rHujyjG+jR/x2etRvDofDj0CZsTPcmw43+2vBCn3l8XjqVjSM9vo306zvd5r1E3pUi6/3nz4zPwIbrrvgXdWFw6oLr6g08uoQ3lQHs+EVJ15RncgoTnhnvg/WF5sxwHDPDzBcG8Ww9SuW13Cx/iMudoK4tAKsnwyN+L9b7qwyDK9nGAyrLrydcSFRtdBI1KF8BpGoTiTKQD4OJDKFtxQKQ0o/vAblwM0FtucK5DLE+tmlZ9JDsEllcDzjRpJZlKYLpIuIKxQSxZ6L3I9E7kMi9eFlpQ+eK0MJn47mJj51jU44nD7fmsL3VAZ2Z9w4X1TcWSDuWF5cPp9PLxK5B2+ke2AXVIKMG7oUGu8UXZNlxLPSxcTPIZG09CBJn8WF9Bk4WlZ5lYbO++z3D4oDLygUnlfs0Kb2g162Q4MW6TzopXPQJvVin9yLF6QevKpJS1rOIpE+zCV9BknqFLSXRT4zBA3KIN5Z3G/FiarswHHVAXsydlj7oPOun4UnpDOwVzqNvtRpzKRPI0mf0grgQvID2FtS+RQFGxUnKvn9/l52gDnmgUdLNT/RB6vTp8CSOomz6ZNIUt0oJbvhqVLNB8WJl+QBlGQHNJFuWAVlgnTDqrkT0Jw8gXLqfbxYkqEqBa/IDvxMssPTUCGkbngmeRy/SHbB5ocepgzADuKBlX8rrhBigbrEMdhR6evWqFGjRo0aNWr8r0h0wU7txqrS1yXdsCpmgjceelDqKGxJHsPPpa7K3U6LenhWbMQvBQO8XJKBicM4NXcE5bnD0FzOHzTfWKBObIRW0YgKb8BwyQanDsDGuUMoz3UiSRzE2XgHNCU6YXWp5idb4DHRBFbRhFcFIxJej+mfTbABSkm8E+rjHbiQ6ECSOIAk3o6ZxH70x21QH7fBugedl2iG9WIjvCUYMSAY8bomLhiQ8Dpc4N+D3VAOYu1wQJNPtCOJ70cSt+XThiTeij/GWnEqZsX+mBVsYjMYRSs0iBZoEM1g5C1gE8xoFxtxSjThT6IJiahJ58UFfS68Dmxlkb9bwgZHY224UCBOYi35WJHEmvNpQiJa8jEjERuRZKVNBdKGQnFc4PVwqKzyd0u0wK5YK964R7ypQNx8H/G8tPCX/A1RDzuhklxrhU2iFceLijcWiBdZkyXyl+PGMjzc/bfEmuBVwYJB0Yy37hFfsiZ3o8PfBB0GRD1sq4jkaCCyhQ1eOsEGp4+PhqZeKnYmboB1vAneFozoFvT4NW/Aa7wOb2ajx2vaa4IOXbwB9sUs8CRUCu9kxMwFIn9wwQjJ5zYbmF75f1eVZCQcXssFo794Q1HiDUWId7FEIJLxzMyU7Nlo2eAC0e05+cVEstFKjExMb4X/Ot6LMy+MTUbJ2N9K5IqMBiKboBoYm4x+PDY5Q7QiiwW4YDQI1YLP98kab2jG7Q3NxL2hqOgNRamq2H+oEv4EAGDM6epTOSsAAAAASUVORK5CYII=;" vertex="1" parent="Yo78GI136DEajXu1sbwt-31">
          <mxGeometry x="20" y="30" width="48" height="48" as="geometry" />
        </mxCell>
        <mxCell id="Yo78GI136DEajXu1sbwt-13" value="" style="group" vertex="1" connectable="0" parent="1">
          <mxGeometry x="97" y="320" width="80" height="130" as="geometry" />
        </mxCell>
        <mxCell id="Yo78GI136DEajXu1sbwt-14" value="&lt;div align=&quot;center&quot;&gt;&lt;blockquote&gt;&lt;br&gt;&lt;/blockquote&gt;&lt;/div&gt;" style="shape=card;whiteSpace=wrap;html=1;fillColor=#F2F5FC;strokeColor=#6c8ebf;align=center;" vertex="1" parent="Yo78GI136DEajXu1sbwt-13">
          <mxGeometry width="80" height="100" as="geometry" />
        </mxCell>
        <mxCell id="Yo78GI136DEajXu1sbwt-15" value="" style="shape=image;verticalLabelPosition=bottom;labelBackgroundColor=default;verticalAlign=top;aspect=fixed;imageAspect=0;image=data:image/png,iVBORw0KGgoAAAANSUhEUgAAADAAAAAwCAYAAABXAvmHAAAACXBIWXMAAAsTAAALEwEAmpwYAAAE8UlEQVR4nO2ZXWxTZRjHnyeyGzGYoICgxisTE00EL7hA4wWJNwZCgM0ENfZr7dZtZYzxlSEZAjLG1tN1O+1Zs53TuXZtV9hoRzQx8ePCK4M3xsRM1AvOOW3X9nwUFlTQ8ZrTdlhHhzLaxpr+kv9N+/Y5v3/yJD09BahRI8s5j+dxys19RDGsSjHcrGOY2wPVBOXmvA6GI4uh3Nxtih57EaoFiuFShQWyGeYOQrVAMey39xRg2H0rHujyjG+jR/x2etRvDofDj0CZsTPcmw43+2vBCn3l8XjqVjSM9vo306zvd5r1E3pUi6/3nz4zPwIbrrvgXdWFw6oLr6g08uoQ3lQHs+EVJ15RncgoTnhnvg/WF5sxwHDPDzBcG8Ww9SuW13Cx/iMudoK4tAKsnwyN+L9b7qwyDK9nGAyrLrydcSFRtdBI1KF8BpGoTiTKQD4OJDKFtxQKQ0o/vAblwM0FtucK5DLE+tmlZ9JDsEllcDzjRpJZlKYLpIuIKxQSxZ6L3I9E7kMi9eFlpQ+eK0MJn47mJj51jU44nD7fmsL3VAZ2Z9w4X1TcWSDuWF5cPp9PLxK5B2+ke2AXVIKMG7oUGu8UXZNlxLPSxcTPIZG09CBJn8WF9Bk4WlZ5lYbO++z3D4oDLygUnlfs0Kb2g162Q4MW6TzopXPQJvVin9yLF6QevKpJS1rOIpE+zCV9BknqFLSXRT4zBA3KIN5Z3G/FiarswHHVAXsydlj7oPOun4UnpDOwVzqNvtRpzKRPI0mf0grgQvID2FtS+RQFGxUnKvn9/l52gDnmgUdLNT/RB6vTp8CSOomz6ZNIUt0oJbvhqVLNB8WJl+QBlGQHNJFuWAVlgnTDqrkT0Jw8gXLqfbxYkqEqBa/IDvxMssPTUCGkbngmeRy/SHbB5ocepgzADuKBlX8rrhBigbrEMdhR6evWqFGjRo0aNWr8r0h0wU7txqrS1yXdsCpmgjceelDqKGxJHsPPpa7K3U6LenhWbMQvBQO8XJKBicM4NXcE5bnD0FzOHzTfWKBObIRW0YgKb8BwyQanDsDGuUMoz3UiSRzE2XgHNCU6YXWp5idb4DHRBFbRhFcFIxJej+mfTbABSkm8E+rjHbiQ6ECSOIAk3o6ZxH70x21QH7fBugedl2iG9WIjvCUYMSAY8bomLhiQ8Dpc4N+D3VAOYu1wQJNPtCOJ70cSt+XThiTeij/GWnEqZsX+mBVsYjMYRSs0iBZoEM1g5C1gE8xoFxtxSjThT6IJiahJ58UFfS68Dmxlkb9bwgZHY224UCBOYi35WJHEmvNpQiJa8jEjERuRZKVNBdKGQnFc4PVwqKzyd0u0wK5YK964R7ypQNx8H/G8tPCX/A1RDzuhklxrhU2iFceLijcWiBdZkyXyl+PGMjzc/bfEmuBVwYJB0Yy37hFfsiZ3o8PfBB0GRD1sq4jkaCCyhQ1eOsEGp4+PhqZeKnYmboB1vAneFozoFvT4NW/Aa7wOb2ajx2vaa4IOXbwB9sUs8CRUCu9kxMwFIn9wwQjJ5zYbmF75f1eVZCQcXssFo794Q1HiDUWId7FEIJLxzMyU7Nlo2eAC0e05+cVEstFKjExMb4X/Ot6LMy+MTUbJ2N9K5IqMBiKboBoYm4x+PDY5Q7QiiwW4YDQI1YLP98kab2jG7Q3NxL2hqOgNRamq2H+oEv4EAGDM6epTOSsAAAAASUVORK5CYII=;" vertex="1" parent="Yo78GI136DEajXu1sbwt-13">
          <mxGeometry x="20" y="30" width="48" height="48" as="geometry" />
        </mxCell>
        <mxCell id="Yo78GI136DEajXu1sbwt-16" value="Template" style="text;html=1;strokeColor=none;fillColor=none;align=center;verticalAlign=middle;whiteSpace=wrap;rounded=0;" vertex="1" parent="Yo78GI136DEajXu1sbwt-13">
          <mxGeometry x="10" y="100" width="60" height="30" as="geometry" />
        </mxCell>
        <mxCell id="Yo78GI136DEajXu1sbwt-21" value="" style="group" vertex="1" connectable="0" parent="1">
          <mxGeometry x="450" y="399" width="80" height="130" as="geometry" />
        </mxCell>
        <mxCell id="Yo78GI136DEajXu1sbwt-22" value="&lt;div align=&quot;center&quot;&gt;&lt;blockquote&gt;&lt;br&gt;&lt;/blockquote&gt;&lt;/div&gt;" style="shape=card;whiteSpace=wrap;html=1;fillColor=#FFF9F2;strokeColor=#d79b00;align=center;" vertex="1" parent="Yo78GI136DEajXu1sbwt-21">
          <mxGeometry width="80" height="100" as="geometry" />
        </mxCell>
        <mxCell id="Yo78GI136DEajXu1sbwt-23" value="" style="shape=image;verticalLabelPosition=bottom;labelBackgroundColor=default;verticalAlign=top;aspect=fixed;imageAspect=0;image=data:image/png,iVBORw0KGgoAAAANSUhEUgAAADAAAAAwCAYAAABXAvmHAAAACXBIWXMAAAsTAAALEwEAmpwYAAAE8UlEQVR4nO2ZXWxTZRjHnyeyGzGYoICgxisTE00EL7hA4wWJNwZCgM0ENfZr7dZtZYzxlSEZAjLG1tN1O+1Zs53TuXZtV9hoRzQx8ePCK4M3xsRM1AvOOW3X9nwUFlTQ8ZrTdlhHhzLaxpr+kv9N+/Y5v3/yJD09BahRI8s5j+dxys19RDGsSjHcrGOY2wPVBOXmvA6GI4uh3Nxtih57EaoFiuFShQWyGeYOQrVAMey39xRg2H0rHujyjG+jR/x2etRvDofDj0CZsTPcmw43+2vBCn3l8XjqVjSM9vo306zvd5r1E3pUi6/3nz4zPwIbrrvgXdWFw6oLr6g08uoQ3lQHs+EVJ15RncgoTnhnvg/WF5sxwHDPDzBcG8Ww9SuW13Cx/iMudoK4tAKsnwyN+L9b7qwyDK9nGAyrLrydcSFRtdBI1KF8BpGoTiTKQD4OJDKFtxQKQ0o/vAblwM0FtucK5DLE+tmlZ9JDsEllcDzjRpJZlKYLpIuIKxQSxZ6L3I9E7kMi9eFlpQ+eK0MJn47mJj51jU44nD7fmsL3VAZ2Z9w4X1TcWSDuWF5cPp9PLxK5B2+ke2AXVIKMG7oUGu8UXZNlxLPSxcTPIZG09CBJn8WF9Bk4WlZ5lYbO++z3D4oDLygUnlfs0Kb2g162Q4MW6TzopXPQJvVin9yLF6QevKpJS1rOIpE+zCV9BknqFLSXRT4zBA3KIN5Z3G/FiarswHHVAXsydlj7oPOun4UnpDOwVzqNvtRpzKRPI0mf0grgQvID2FtS+RQFGxUnKvn9/l52gDnmgUdLNT/RB6vTp8CSOomz6ZNIUt0oJbvhqVLNB8WJl+QBlGQHNJFuWAVlgnTDqrkT0Jw8gXLqfbxYkqEqBa/IDvxMssPTUCGkbngmeRy/SHbB5ocepgzADuKBlX8rrhBigbrEMdhR6evWqFGjRo0aNWr8r0h0wU7txqrS1yXdsCpmgjceelDqKGxJHsPPpa7K3U6LenhWbMQvBQO8XJKBicM4NXcE5bnD0FzOHzTfWKBObIRW0YgKb8BwyQanDsDGuUMoz3UiSRzE2XgHNCU6YXWp5idb4DHRBFbRhFcFIxJej+mfTbABSkm8E+rjHbiQ6ECSOIAk3o6ZxH70x21QH7fBugedl2iG9WIjvCUYMSAY8bomLhiQ8Dpc4N+D3VAOYu1wQJNPtCOJ70cSt+XThiTeij/GWnEqZsX+mBVsYjMYRSs0iBZoEM1g5C1gE8xoFxtxSjThT6IJiahJ58UFfS68Dmxlkb9bwgZHY224UCBOYi35WJHEmvNpQiJa8jEjERuRZKVNBdKGQnFc4PVwqKzyd0u0wK5YK964R7ypQNx8H/G8tPCX/A1RDzuhklxrhU2iFceLijcWiBdZkyXyl+PGMjzc/bfEmuBVwYJB0Yy37hFfsiZ3o8PfBB0GRD1sq4jkaCCyhQ1eOsEGp4+PhqZeKnYmboB1vAneFozoFvT4NW/Aa7wOb2ajx2vaa4IOXbwB9sUs8CRUCu9kxMwFIn9wwQjJ5zYbmF75f1eVZCQcXssFo794Q1HiDUWId7FEIJLxzMyU7Nlo2eAC0e05+cVEstFKjExMb4X/Ot6LMy+MTUbJ2N9K5IqMBiKboBoYm4x+PDY5Q7QiiwW4YDQI1YLP98kab2jG7Q3NxL2hqOgNRamq2H+oEv4EAGDM6epTOSsAAAAASUVORK5CYII=;" vertex="1" parent="Yo78GI136DEajXu1sbwt-21">
          <mxGeometry x="20" y="30" width="48" height="48" as="geometry" />
        </mxCell>
        <mxCell id="Yo78GI136DEajXu1sbwt-24" value="&lt;div&gt;Worksheet.ipynb&lt;/div&gt;" style="text;html=1;strokeColor=none;fillColor=none;align=center;verticalAlign=middle;whiteSpace=wrap;rounded=0;" vertex="1" parent="Yo78GI136DEajXu1sbwt-21">
          <mxGeometry x="10" y="100" width="60" height="30" as="geometry" />
        </mxCell>
        <mxCell id="Yo78GI136DEajXu1sbwt-35" value="" style="endArrow=classic;html=1;rounded=0;exitX=1;exitY=0.5;exitDx=0;exitDy=0;exitPerimeter=0;entryX=0;entryY=0;entryDx=0;entryDy=65;entryPerimeter=0;" edge="1" parent="1" source="Yo78GI136DEajXu1sbwt-14" target="Yo78GI136DEajXu1sbwt-22">
          <mxGeometry width="50" height="50" relative="1" as="geometry">
            <mxPoint x="400" y="430" as="sourcePoint" />
            <mxPoint x="450" y="380" as="targetPoint" />
            <Array as="points">
              <mxPoint x="360" y="370" />
              <mxPoint x="360" y="464" />
            </Array>
          </mxGeometry>
        </mxCell>
        <mxCell id="Yo78GI136DEajXu1sbwt-36" value="" style="endArrow=classic;html=1;rounded=0;exitX=1;exitY=0.5;exitDx=0;exitDy=0;exitPerimeter=0;entryX=0;entryY=0;entryDx=0;entryDy=65;entryPerimeter=0;" edge="1" parent="1" source="Yo78GI136DEajXu1sbwt-32" target="Yo78GI136DEajXu1sbwt-22">
          <mxGeometry width="50" height="50" relative="1" as="geometry">
            <mxPoint x="400" y="430" as="sourcePoint" />
            <mxPoint x="370" y="540" as="targetPoint" />
            <Array as="points">
              <mxPoint x="360" y="540" />
              <mxPoint x="360" y="464" />
            </Array>
          </mxGeometry>
        </mxCell>
      </root>
    </mxGraphModel>
  </diagram>
</mxfile>
